  0
SECTION
  2
HEADER
  9
$ACADVER
  1
AC1009
  9
$INSBASE
 10
0.0
 20
0.0
 30
0.0
  9
$EXTMIN
 10
0.0
 20
0.0
 30
0.0
  9
$EXTMAX
 10
0.0
 20
0.0
 30
0.0
  0
ENDSEC
  0
SECTION
  2
TABLES
  0
TABLE
  2
VPORT
 70
0
  0
ENDTAB
  0
TABLE
  2
LTYPE
 70
1
  0
LTYPE
  2
CONTINUOUS
 70
0
  3
Solid line
 72
65
 73
0
 40
0.0
  0
ENDTAB
  0
TABLE
  2
LAYER
 70
1
  0
LAYER
  2
0
 70
64
 62
7
  6
continuous
  0
ENDTAB
  0
TABLE
  2
STYLE
 70
1
  0
STYLE
  2
STANDARD
 70
0
 40
0
 41
1.0
 50
0.0
 71
0
 42
1
 3
ARIAL.TTF
 4

  0
ENDTAB
  0
TABLE
  2
VIEW
 70
0
  0
ENDTAB
  0
ENDSEC
  0
SECTION
  2
BLOCKS
  0
BLOCK
  8
0
  2
SKETCH001
 70
0
 10
0.0
 20
0.0
 30
0.0
  3
SKETCH001
  0
POLYLINE
  8
0
 62
7
 70
1
 66
1
 10
0.0
 20
0.0
 30
0.0
  0
VERTEX
  8
0
 10
0.0
 20
0.0
 30
0.0
  0
VERTEX
  8
0
 10
0.0
 20
-46.0
 30
0.0
  0
VERTEX
  8
0
 10
16.0
 20
-46.0
 30
0.0
  0
VERTEX
  8
0
 10
16.0
 20
-55.0
 30
0.0
  0
VERTEX
  8
0
 10
16.0
 20
-85.0
 30
0.0
  0
VERTEX
  8
0
 10
16.0
 20
-106.0
 30
0.0
  0
VERTEX
  8
0
 10
83.0
 20
-106.0
 30
0.0
  0
VERTEX
  8
0
 10
83.0
 20
-85.0
 30
0.0
  0
VERTEX
  8
0
 10
83.0
 20
-55.0
 30
0.0
  0
VERTEX
  8
0
 10
83.0
 20
-46.0
 30
0.0
  0
VERTEX
  8
0
 10
99.0
 20
-46.0
 30
0.0
  0
VERTEX
  8
0
 10
99.0
 20
0.0
 30
0.0
  0
VERTEX
  8
0
 10
56.25
 20
6.0
 30
0.0
  0
VERTEX
  8
0
 10
42.75
 20
6.0
 30
0.0
  0
SEQEND
  8
0
  0
CIRCLE
  8
0
 62
7
 10
19.5
 20
-85.0
 30
0.0
 40
1.7
  0
CIRCLE
  8
0
 62
7
 10
19.5
 20
-70.0
 30
0.0
 40
1.7
  0
CIRCLE
  8
0
 62
7
 10
19.5
 20
-55.0
 30
0.0
 40
1.7
  0
CIRCLE
  8
0
 62
7
 10
79.5
 20
-85.0
 30
0.0
 40
1.7
  0
CIRCLE
  8
0
 62
7
 10
79.5
 20
-70.0
 30
0.0
 40
1.7
  0
CIRCLE
  8
0
 62
7
 10
79.5
 20
-55.0
 30
0.0
 40
1.7
  0
CIRCLE
  8
0
 62
7
 10
87.5
 20
-3.0
 30
0.0
 40
1.2
  0
CIRCLE
  8
0
 62
7
 10
11.5
 20
-3.0
 30
0.0
 40
1.2
  0
CIRCLE
  8
0
 62
7
 10
8.0
 20
-17.5
 30
0.0
 40
1.2
  0
CIRCLE
  8
0
 62
7
 10
91.0
 20
-17.5
 30
0.0
 40
1.2
  0
CIRCLE
  8
0
 62
7
 10
8.0
 20
-11.0
 30
0.0
 40
3.0
  0
CIRCLE
  8
0
 62
7
 10
91.0
 20
-11.0
 30
0.0
 40
3.0
  0
CIRCLE
  8
0
 62
7
 10
42.75
 20
-15.0
 30
0.0
 40
1.2
  0
CIRCLE
  8
0
 62
7
 10
56.25
 20
-15.0
 30
0.0
 40
1.2
  0
CIRCLE
  8
0
 62
7
 10
19.5
 20
-100.0
 30
0.0
 40
1.7
  0
CIRCLE
  8
0
 62
7
 10
79.5
 20
-100.0
 30
0.0
 40
1.7
  0
ENDBLK
  0
ENDSEC
  0
SECTION
  2
ENTITIES
  0
INSERT
  2
SKETCH001
  8
0
 10
0.0
 20
0.0
 30
0.0
  0
ENDSEC
  0
EOF
